<svg id="Component_19_1" data-name="Component 19 – 1" xmlns="http://www.w3.org/2000/svg" width="801.834" height="136.443" viewBox="0 0 801.834 136.443">
  <path id="Path_136387" data-name="Path 136387" d="M125.835,138.736l-4.575,24.751c-11.856,3.952-23.5,8.736-46.175,8.736C38.271,172.223,8.32,142.064,8.32,104S38.271,35.78,75.085,35.78c20.8,0,30.991,4.992,42.015,8.736l4.576,22.671C103.788,46.387,94.221,37.86,75.085,37.86,42.638,37.86,28.911,62.4,28.911,104s13.727,66.142,46.174,66.142C95.885,170.143,106.284,160.991,125.835,138.736Zm15.4-54.91c0-26.623,22.879-47.838,47.63-47.838,24.543,0,47.423,21.215,47.423,47.838s-22.88,47.838-47.423,47.838C164.11,131.664,141.231,110.449,141.231,83.826Zm77.581,0c0-29.327-9.567-46.382-29.951-46.382C168.27,37.444,158.7,54.5,158.7,83.826s9.568,46.382,30.159,46.382C209.245,130.208,218.812,113.153,218.812,83.826Zm46.387,1.04V47.427l-6.656-7.9h21.216l86.732,104.2V123.345c0-46.383-1.456-70.51-2.911-83.821h9.359c-1.664,13.311-3.12,37.854-3.12,83.613v47.422L268.527,51.379V84.658c0,46.382,1.456,70.51,2.912,83.821h-9.36C263.743,155.168,265.2,130.624,265.2,84.866Zm250.843,53.87-4.576,24.751c-11.856,3.952-23.5,8.736-46.174,8.736-36.815,0-66.766-30.159-66.766-68.222S428.477,35.78,465.292,35.78c20.8,0,30.991,4.992,42.014,8.736l4.576,22.671c-17.887-20.8-27.455-29.327-46.59-29.327-32.447,0-46.175,24.543-46.175,66.141s13.728,66.142,46.175,66.142C486.091,170.143,496.49,160.991,516.042,138.736ZM587.8,39.524l6.032,10.4c-4.992-1.456-18.719-7.071-33.7-7.9V75.09l20.591-1.248-1.455,3.952-19.136-.416V127.3a143.379,143.379,0,0,0,42.431-7.9l-6.032,10.4H542.253c3.328-2.287,3.744-4.575,3.744-8.735v-72.8c0-4.159-.416-6.447-3.744-8.735Zm36.4,0h34.735c33.487,0,45.758,15.391,45.758,33.071,0,16.015-14.143,33.9-45.134,33.9a85.679,85.679,0,0,1-14.144-1.04V156c0,6.031.417,9.151,5.2,12.479H624.2c4.784-3.328,5.2-6.448,5.2-12.479V52C629.4,45.971,628.988,42.852,624.2,39.524Zm21.215,2.5v60.525a85.679,85.679,0,0,0,14.144,1.04c21.007,0,28.7-8.735,28.7-30.99,0-22.048-7.7-30.575-31.615-30.575ZM774.171,168.479H747.756c4.784-3.328,5.2-6.448,5.2-12.479V42.02c-15.391,0-33.9,6.863-41.182,11.439L720.3,39.524h81.325l8.528,13.935c-7.28-4.576-25.791-11.439-41.182-11.439V156C768.972,162.031,769.388,165.151,774.171,168.479Z" transform="translate(-8.32 -35.78)" fill="#fff"/>
</svg>
