<svg id="Component_22_1" data-name="Component 22 – 1" xmlns="http://www.w3.org/2000/svg" width="496.7" height="136.027" viewBox="0 0 496.7 136.027">
  <path id="Path_220318" data-name="Path 220318" d="M22.255,84.866V47.427l-6.656-7.9H36.815l86.733,104.2V123.345c0-46.383-1.456-70.51-2.912-83.821h9.359c-1.664,13.311-3.12,37.854-3.12,83.613v47.422L25.583,51.379V84.658c0,46.382,1.456,70.51,2.912,83.821h-9.36C20.8,155.168,22.255,130.624,22.255,84.866ZM210.492,39.524l6.032,10.4c-4.992-1.456-18.719-7.071-33.7-7.9V75.09l20.591-1.248-1.456,3.952-19.135-.416V127.3a143.38,143.38,0,0,0,42.431-7.9l-6.032,10.4H164.942c3.328-2.287,3.744-4.575,3.744-8.735v-72.8c0-4.159-.416-6.447-3.744-8.735ZM240.861,52c-2.7-6.24-3.951-9.775-7.487-12.479h27.455c-2.288,2.7-3.328,4.992-.624,12.479l33.9,95.261c13.311-37.231,27.247-74.253,39.934-111.276l45.342,112.524c11.648-35.983,24.128-75.293,33.279-108.988H424.1c-16.432,38.27-34.111,88.189-50.542,132.491L329.05,68.643c-13.727,34.526-28.287,68.637-41.806,103.372ZM439.294,163.279l-2.5-16.431c12.687,15.183,22.879,22.671,37.022,22.671,13.1,0,26.623-9.36,26.623-24.543,0-16.431-10.191-26.415-21.423-34.111L468,103.169c-14.352-10.191-28.7-20.383-28.7-36.19,0-18.512,16.015-30.575,34.942-30.575,12.688,0,21.008,1.872,27.663,4.576l4.576,16.431c-11.231-12.687-19.967-18.927-32.239-18.927-14.143,0-23.087,5.616-23.087,18.3,0,13.312,12.064,21.839,24.543,30.575l11.856,8.112c12.479,8.319,24.751,18.511,24.751,38.27,0,19.552-19.759,38.063-38.479,38.063C458.013,171.807,447.821,167.439,439.294,163.279Z" transform="translate(-15.599 -35.988)" fill="#f5f1ea"/>
</svg>
