<?xml version="1.0" encoding="utf-8"?>
<!-- Generator: Adobe Illustrator 26.2.1, SVG Export Plug-In . SVG Version: 6.00 Build 0)  -->
<svg version="1.1" id="Layer_1" xmlns="http://www.w3.org/2000/svg" xmlns:xlink="http://www.w3.org/1999/xlink" x="0px" y="0px"
	 viewBox="0 0 576 364" style="enable-background:new 0 0 576 364;" xml:space="preserve">
<g id="Artwork">
	<path d="M370.1,146.5c-4,0-9.6,6.4-9.6,9.4c0,1.5,1.1,2.2,2.5,2.2c4.1,0,9.7-5.5,9.7-9.1C372.6,147.5,371.5,146.5,370.1,146.5
		C370.2,146.5,370.1,146.5,370.1,146.5z"/>
	<path d="M540.1,146.5c-4,0-9.6,6.4-9.6,9.4c0,1.5,1.1,2.2,2.5,2.2c4.1,0,9.7-5.5,9.7-9.1C542.6,147.5,541.5,146.4,540.1,146.5
		C540.1,146.5,540.1,146.5,540.1,146.5z"/>
	<path d="M263.3,104.4c-36.2,0-92.8,49-123.5,70.2c8.6-17.3,16.8-34,25.5-46.7c3.9-5.6,2.8-7.3,1.1-7.3s-7.8,2.4-31.6,5.4
		c-23.4,3-35.9,15.6-35.9,30.3c0,7,3,12.7,6.5,15.4c1.2,1,2.4,0.4,1.1-1.5c-1.7-2.5-4.1-7.1-4.1-11.6c0-9.6,6.4-18.5,17.7-22.7
		c9.6-3.6,18.2-3.6,32.4-5.7c-20.1,33.7-53.2,129.5-96.5,129.5c-11.6,0.1-22.3-6.1-27.8-16.3c-1.4-2.4-2-3.4-4.2-3.4
		c-2-0.1-3.7,1.3-3.8,3.3c0,0.1,0,0.2,0,0.3c0,10.2,20.2,19,34.8,19c39.3,0,62.6-43.2,83.1-84.4c11.9,32.2,23.3,78.6,61.7,78.6
		c15.6,0,31.6-11.5,38.7-20.7c1.8-2.3,1.2-3.7-0.8-1.6c-6.1,6.4-20.2,17.6-35.7,17.6c-22.6,0-38-21.5-53.6-75.6
		c25.3-20,86.1-67.9,115.5-67.9c6.7,0,11.4,1.9,11.4,5c0,3.6-4.1,6.9-4.1,7.8c0.1,1,1,1.7,2,1.6c0,0,0,0,0,0c3.8,0,7.3-4.4,7.3-8.8
		C280.5,108.6,272.6,104.4,263.3,104.4z"/>
	<path d="M555.3,179.6c-0.5,0-1,0.5-1.7,1.6c-4.5,7.3-22.6,27.4-33,27.4c-2.8,0-4.2-2.6-4.2-5.4c0-10,11-22.6,11-26
		c0-0.9-1.1-1.6-2.3-1.6c-4.2,0-5.5,0.7-8.3,4.8c-5.7,8.1-15,27.9-24.7,27.9c-7.1,0-11.5-13.6-12.6-25.4c3.3-3,19.2-13.9,23.7-15.6
		c2.3-0.9,1.2-4.6-1.4-4.6c-1.8,0-23.7,15.9-29.6,20.1c10.2-21.2,24.2-49.5,31.9-62.1c2.2-3.7,8.6-9.8,8.6-13.2
		c0-1.1-0.5-1.7-1.5-1.7c-7.1,0-19.7,23.7-51.9,46.3c-3.9,2.7-14.9,9.4-15.6,18.1c-8.8,0.2-14.5,4.6-16.2,10
		c-6.8,15.1-20.2,27.5-26.8,27.5c-1.5,0-1.9-1.3-1.9-2.5c0-6,10-19.9,10-25c0-3-2.2-4.8-5.4-4.8c-6.9,0-12.6,4.3-20,11.4
		c0.7-2,3.1-7.7,3.6-9c0.8-1.9-0.8-2.4-2-2.4c-3.2,0-6.3,1.9-7,4.1c-7.5,12-23.2,28.3-29,28.3c-1.2,0-1.7-1-1.7-2.8
		c0-5.7,11.9-25,12.9-27.1c0.9-2-1-2.4-2-2.4c-2.6,0-5.1,1.2-6.7,3.4c-0.2,0.3-0.5,0.7-0.8,1.1c-7.1,9.6-22.3,21.8-35,27
		c8.6-6.5,16.2-16.2,16.2-24.2c0-4.7-3.6-7.3-8.4-7.3c-5.3,0-11.1,2.7-16.3,6.7c3.3-6.4,7.1-12.6,7.6-13.8c0.9-2-1-2.4-2-2.4
		c-2.3,0-6.2,1.4-7.7,4.1c-4.1,7.5-9.5,18.9-12.8,26.3c-5.4,7.5-13.5,11.2-16.5,11.2c-1.1,0-1.8-0.9-1.8-2.5
		c0-5.9,10.1-19.9,10.1-25c0-3-2.3-4.7-5.2-4.7c-6.6,0-11.6,3.7-18.9,10.7c1.7-6.6-0.5-10.7-5.6-10.7c-6.9,0-13.7,6-19.4,13
		c1.2-3.2,2.1-5.2,2.1-8.3s-1.9-4.7-4.6-4.7c-15.3,0-26,34.1-43.7,34.1c-4.9,0-7.2-3.4-7.2-7.7c0-1,0.1-2.1,0.3-3.1
		c11.6-1.3,29.8-12,29.8-22.1c0-3.5-3.1-5.3-7-5.3c-14.4,0-32.1,18.4-32.1,31.1c0,7.9,5.5,12.6,12.4,12.6
		c13.1,0,23.9-12.2,31.7-22.6c4.8-6.4,8.9-10.1,10.2-10.1c0.4,0,0.6,0.2,0.6,0.8c0,4-11,26.2-11,28.7c0,1.4,1.3,1.4,2.6,1.4
		c5.1,0,6.7-2.7,9.8-9c2.9-6,14.8-23.5,21.3-23.5c1.3,0,1.7,0.9,1.7,2.1c0,6.5-11.7,26-11.7,29c0,1.4,1.3,1.4,2.6,1.4
		c6.1,0,7.7-4.8,12.3-14.3s14.8-18.1,18.9-18.1c0.9,0,1.2,0.4,1.2,1.2c0,3.5-10.6,19.5-10.6,25.7c0,3.6,2.5,5.6,6.4,5.6
		c4.1,0,11.1-2.4,17.5-8.3c-12.8,29.5-19.5,49.3-46.6,63.2c-0.8,0.4-0.8,1,0.2,1c2.2-0.3,4.4-1,6.4-2.1
		c25.2-12.4,35.1-30.2,47.1-55.8c8.4-17.9,16.3-31.7,24.4-31.7c2.3,0,3,2,3,3.9c0,5-7.6,16.1-15.1,21.7c-4.4,3.3-6.8,4.3-6.8,6
		c0,1.3,1.4,2.1,2.9,2.1c11.1,0,26.8-8.8,38.9-20.2c-2.6,5.2-4.8,10.6-4.8,14c0,4.3,3.1,6.1,6.5,6.1c8.4,0,19.6-10.7,28.9-21.9
		c-4.2,9.5-9.2,18.4-9.2,20.5c0,1.4,1.4,1.4,2.6,1.4c6.1,0,7.7-4.8,12.3-14.3s15.2-18.1,19.3-18.1c0.9,0,1.5,0.4,1.5,1.2
		c0,3.5-10.6,19.5-10.6,25.7c0,3.6,2.5,5.6,6.4,5.6c11,0,24.3-12.5,32.1-25.9c2.4,5.5,8.5,10.9,8.5,16c0,3.2-2.7,5.9-5.9,5.9
		c0,0-0.1,0-0.1,0c-6.2,0-6.8-5.1-9.7-5.1c-2.4,0-3.9,1.4-4,2.8c-0.2,3.3,6.5,6.3,11.2,6.3c7.8,0,16-5.7,16-13.9s-9.4-13.8-9.4-20
		c0-2.9,2.1-5.1,6.2-5.1c1.8,0.1,3.5,0.6,5,1.6c2,1.8,4.7,2.8,7.4,2.7c3.5-0.2,6.8-1.6,9.4-4c1.4-1.4,0.6-2.6-0.7-1.9
		c-1.7,0.8-3.6,1.2-5.5,1.1c-3.2,0-6-1.8-6-5.8c0-9.3,19.5-17,37.3-35c-11.1,21.1-29.6,60-34.9,71c-1.8,3.8-3.2,6.7-3.2,7.7
		c0,1.4,1,1.5,2.5,1.5c3.4,0,6.1-1.1,8.6-6.5c1.6-3.5,5.5-11.7,10.4-21.9c1.8,17.1,7.9,28.4,18.2,28.4c7,0,12.9-4.5,18.6-12.6
		c-0.2,8,3.8,12.6,11.2,12.6c15.2,0,37.1-24.9,37.1-33.2C556,179.8,555.7,179.5,555.3,179.6z M201,176.4c1.3,0,2.1,0.7,2.1,2.4
		c0,4.6-11.4,15.1-20.6,17.2C185.9,185.6,196.6,176.4,201,176.4z"/>
</g>
</svg>
