<svg id="svg" version="1.1" xmlns="http://www.w3.org/2000/svg" xmlns:xlink="http://www.w3.org/1999/xlink" width="400" height="400" viewBox="0, 0, 400,400"><g id="svgg"><path id="path0" d="M164.236 166.486 C 161.845 167.378,160.799 168.826,160.801 171.240 C 160.803 173.987,161.703 174.754,166.266 175.897 C 169.782 176.778,170.663 177.388,170.164 178.593 C 169.365 180.523,165.505 180.485,163.462 178.528 L 162.790 177.885 161.369 178.876 L 159.948 179.866 161.195 180.996 C 165.603 184.986,173.623 182.992,173.671 177.895 C 173.699 174.938,172.483 173.896,167.593 172.685 C 163.907 171.772,163.093 170.576,165.362 169.404 C 166.743 168.691,169.681 169.373,170.347 170.562 C 170.652 171.108,171.299 170.906,172.533 169.879 L 173.467 169.103 172.667 168.261 C 170.898 166.397,166.789 165.532,164.236 166.486 M253.388 166.948 C 247.440 169.920,248.007 180.499,254.226 182.564 C 256.240 183.233,259.098 182.970,260.730 181.966 C 261.964 181.206,263.843 178.862,263.659 178.311 C 263.510 177.864,260.688 177.001,260.567 177.365 C 259.361 180.985,254.152 180.457,253.083 176.607 C 251.542 171.060,257.360 166.111,259.893 170.814 C 260.165 171.320,260.440 171.733,260.504 171.733 C 261.566 171.733,263.450 170.761,263.315 170.284 C 262.284 166.659,257.311 164.988,253.388 166.948 M290.008 166.558 C 284.748 168.484,285.680 174.492,291.429 175.715 C 295.668 176.617,296.511 177.124,296.152 178.553 C 295.666 180.489,290.989 180.421,289.240 178.453 L 288.746 177.898 287.444 178.749 C 285.932 179.738,285.880 179.929,286.867 180.854 C 290.619 184.370,298.105 183.461,299.470 179.323 C 300.583 175.951,298.781 173.916,293.597 172.691 C 290.682 172.002,290.133 171.704,290.133 170.809 C 290.133 168.990,293.750 168.507,295.690 170.067 C 297.008 171.126,296.963 171.126,298.236 170.049 C 300.874 167.817,294.249 165.006,290.008 166.558 M59.467 167.867 L 59.467 169.333 61.867 169.333 L 64.267 169.333 64.267 176.000 L 64.267 182.667 65.867 182.667 L 67.467 182.667 67.467 176.000 L 67.467 169.333 69.867 169.333 L 72.267 169.333 72.267 167.867 L 72.267 166.400 65.867 166.400 L 59.467 166.400 59.467 167.867 M77.867 174.533 L 77.867 182.667 79.467 182.667 L 81.067 182.667 81.067 179.200 L 81.067 175.733 84.533 175.733 L 88.000 175.733 88.000 179.200 L 88.000 182.667 89.600 182.667 L 91.200 182.667 91.200 174.533 L 91.200 166.400 89.600 166.400 L 88.000 166.400 88.000 169.600 L 88.000 172.800 84.533 172.800 L 81.067 172.800 81.067 169.600 L 81.067 166.400 79.467 166.400 L 77.867 166.400 77.867 174.533 M98.400 174.533 L 98.400 182.667 104.000 182.667 L 109.600 182.667 109.600 181.200 L 109.600 179.733 105.600 179.733 L 101.600 179.733 101.600 177.733 L 101.600 175.733 105.200 175.733 L 108.800 175.733 108.800 174.267 L 108.800 172.800 105.200 172.800 L 101.600 172.800 101.600 171.067 L 101.600 169.333 105.333 169.333 L 109.067 169.333 109.067 167.867 L 109.067 166.400 103.733 166.400 L 98.400 166.400 98.400 174.533 M125.333 174.500 L 125.333 182.667 126.933 182.667 L 128.533 182.667 128.533 179.316 L 128.533 175.966 129.390 176.050 C 130.186 176.127,130.373 176.361,132.012 179.333 L 133.776 182.533 135.688 182.612 C 138.008 182.707,138.017 183.034,135.584 178.997 C 133.607 175.716,133.471 175.220,134.548 175.204 C 135.745 175.187,137.202 172.205,136.894 170.400 C 136.394 167.468,134.722 166.601,129.270 166.446 L 125.333 166.334 125.333 174.500 M143.733 174.533 L 143.733 182.667 149.333 182.667 L 154.933 182.667 154.933 181.200 L 154.933 179.733 150.933 179.733 L 146.933 179.733 146.933 177.733 L 146.933 175.733 150.533 175.733 L 154.133 175.733 154.133 174.267 L 154.133 172.800 150.533 172.800 L 146.933 172.800 146.933 171.067 L 146.933 169.333 150.667 169.333 L 154.400 169.333 154.400 167.867 L 154.400 166.400 149.067 166.400 L 143.733 166.400 143.733 174.533 M180.000 174.533 L 180.000 182.667 181.600 182.667 L 183.200 182.667 183.200 174.533 L 183.200 166.400 181.600 166.400 L 180.000 166.400 180.000 174.533 M190.400 174.533 L 190.400 182.732 194.467 182.606 C 201.600 182.385,204.644 180.248,205.004 175.207 C 205.425 169.330,202.273 166.716,194.467 166.466 L 190.400 166.335 190.400 174.533 M211.200 174.533 L 211.200 182.667 216.800 182.667 L 222.400 182.667 222.400 181.200 L 222.400 179.733 218.400 179.733 L 214.400 179.733 214.400 177.733 L 214.400 175.733 218.000 175.733 L 221.600 175.733 221.600 174.267 L 221.600 172.800 218.000 172.800 L 214.400 172.800 214.400 171.067 L 214.400 169.333 218.133 169.333 L 221.867 169.333 221.867 167.867 L 221.867 166.400 216.533 166.400 L 211.200 166.400 211.200 174.533 M228.800 174.533 L 228.800 182.667 230.395 182.667 L 231.989 182.667 232.061 177.137 L 232.133 171.607 235.577 177.137 L 239.021 182.667 240.977 182.667 L 242.933 182.667 242.933 174.533 L 242.933 166.400 241.339 166.400 L 239.744 166.400 239.672 171.846 L 239.600 177.292 236.169 171.846 L 232.737 166.400 230.769 166.400 L 228.800 166.400 228.800 174.533 M269.600 174.533 L 269.600 182.667 275.200 182.667 L 280.800 182.667 280.800 181.200 L 280.800 179.733 276.800 179.733 L 272.800 179.733 272.800 177.733 L 272.800 175.733 276.400 175.733 L 280.000 175.733 280.000 174.267 L 280.000 172.800 276.400 172.800 L 272.800 172.800 272.800 171.067 L 272.800 169.333 276.667 169.333 L 280.533 169.333 280.533 167.867 L 280.533 166.400 275.067 166.400 L 269.600 166.400 269.600 174.533 M320.022 167.000 C 319.894 167.330,318.397 170.874,316.695 174.876 C 313.037 183.476,313.169 182.710,315.366 182.612 L 317.132 182.533 317.796 180.733 L 318.461 178.933 321.699 178.933 L 324.937 178.933 325.632 180.733 L 326.326 182.533 328.225 182.612 C 329.998 182.685,330.112 182.656,329.929 182.183 C 329.821 181.904,328.293 178.240,326.533 174.041 L 323.333 166.407 321.793 166.404 C 320.441 166.400,320.225 166.473,320.022 167.000 M332.267 167.867 L 332.267 169.333 334.800 169.333 L 337.333 169.333 337.333 176.000 L 337.333 182.667 338.933 182.667 L 340.533 182.667 340.533 176.000 L 340.533 169.333 342.933 169.333 L 345.333 169.333 345.333 167.867 L 345.333 166.400 338.800 166.400 L 332.267 166.400 332.267 167.867 M132.661 169.646 C 135.064 170.741,133.428 173.067,130.254 173.067 L 128.533 173.067 128.533 171.200 L 128.533 169.333 130.254 169.333 C 131.201 169.333,132.283 169.474,132.661 169.646 M198.957 170.054 C 201.058 170.989,202.058 173.545,201.334 176.130 C 200.681 178.462,198.418 179.733,194.920 179.733 L 193.600 179.733 193.600 174.499 L 193.600 169.265 195.667 169.387 C 196.932 169.462,198.208 169.721,198.957 170.054 M323.732 176.067 C 323.733 176.177,322.833 176.267,321.733 176.267 C 320.633 176.267,319.730 176.177,319.727 176.067 C 319.723 175.957,320.171 174.703,320.721 173.280 L 321.722 170.694 322.726 173.280 C 323.278 174.703,323.731 175.957,323.732 176.067 M189.535 213.555 C 185.049 215.584,184.974 215.696,187.338 216.862 L 189.076 217.719 189.004 223.362 L 188.933 229.005 185.733 229.126 C 181.858 229.272,179.258 230.055,176.446 231.925 C 167.432 237.917,170.104 252.441,180.372 253.265 C 182.112 253.405,183.649 252.808,187.688 250.427 L 189.067 249.614 189.067 251.874 C 189.067 254.599,188.719 254.519,193.617 252.919 C 197.278 251.722,197.333 251.692,197.333 250.919 C 197.333 250.141,197.319 250.133,195.800 250.129 C 193.227 250.122,193.453 252.091,193.571 230.676 C 193.629 220.257,193.629 211.743,193.571 211.755 C 193.514 211.767,191.697 212.577,189.535 213.555 M204.467 213.567 C 199.964 215.554,199.925 215.612,202.285 216.809 L 204.037 217.698 203.851 233.983 C 203.656 251.013,203.674 250.801,202.382 251.050 C 201.952 251.132,201.240 251.270,200.800 251.355 C 200.129 251.484,200.000 251.635,200.000 252.288 L 200.000 253.067 206.267 253.067 L 212.533 253.067 212.533 252.295 C 212.533 251.415,212.163 251.200,210.645 251.200 C 208.386 251.200,208.203 250.374,208.320 240.686 L 208.400 234.040 210.267 233.088 C 213.840 231.266,216.987 231.943,218.427 234.844 C 219.048 236.095,219.067 236.321,219.067 242.400 C 219.067 250.948,219.081 250.905,216.168 251.342 C 215.027 251.513,214.933 251.586,214.933 252.297 L 214.933 253.067 221.333 253.067 L 227.733 253.067 227.733 252.300 C 227.733 251.511,227.097 251.200,225.484 251.200 C 223.877 251.200,223.867 251.149,223.867 242.887 C 223.867 234.461,223.762 233.814,222.013 231.431 C 219.420 227.897,214.912 227.637,210.629 230.774 L 208.667 232.212 208.533 222.021 L 208.400 211.831 204.467 213.567 M107.333 216.907 C 102.453 218.455,99.600 222.105,99.600 226.800 C 99.600 231.428,101.601 233.832,108.258 237.204 C 116.165 241.210,118.195 245.370,114.369 249.728 C 110.079 254.614,103.978 252.161,100.723 244.242 C 100.364 243.370,100.251 243.295,99.467 243.410 L 98.605 243.536 98.783 245.435 C 99.063 248.420,99.762 252.637,100.031 252.966 C 100.892 254.020,110.524 254.293,113.333 253.344 C 118.449 251.616,121.190 248.163,121.189 243.450 C 121.188 238.694,119.352 236.296,113.155 232.956 C 105.094 228.612,103.751 227.293,104.085 224.053 C 104.673 218.355,111.850 216.713,115.832 221.365 C 116.351 221.972,117.268 223.413,117.869 224.569 C 118.945 226.637,119.564 227.031,120.498 226.242 C 120.612 226.146,119.764 218.507,119.560 217.792 C 119.454 217.418,119.246 217.350,118.579 217.475 C 118.103 217.564,116.656 217.392,115.269 217.083 C 112.489 216.463,108.980 216.385,107.333 216.907 M129.701 218.513 C 127.490 219.484,127.379 222.609,129.516 223.702 C 131.916 224.929,134.618 222.457,133.590 219.975 C 132.996 218.541,131.186 217.861,129.701 218.513 M144.869 229.015 C 140.019 230.827,139.868 231.052,142.667 232.303 L 144.533 233.138 144.533 241.063 C 144.533 250.926,144.563 250.824,141.533 251.325 C 140.641 251.473,140.533 251.575,140.533 252.279 L 140.533 253.067 147.067 253.067 L 153.600 253.067 153.600 252.272 C 153.600 251.659,153.463 251.451,153.000 251.364 C 149.137 250.638,149.342 251.163,149.300 241.883 L 149.266 234.299 149.900 233.777 C 153.495 230.816,158.720 231.554,159.983 235.200 C 160.470 236.608,160.608 240.695,160.330 245.552 C 160.038 250.663,159.980 250.776,157.389 251.232 C 155.808 251.511,155.733 251.558,155.733 252.295 L 155.733 253.067 162.267 253.067 L 168.800 253.067 168.800 252.272 C 168.800 251.424,168.543 251.285,166.693 251.139 C 164.775 250.986,164.660 250.469,165.034 243.674 C 165.550 234.285,164.771 231.444,161.021 229.037 C 158.335 227.314,155.292 227.919,151.316 230.966 C 149.182 232.602,149.333 232.686,149.333 229.867 C 149.333 228.547,149.243 227.473,149.133 227.481 C 149.023 227.490,147.104 228.180,144.869 229.015 M282.600 229.024 C 277.885 230.824,277.741 231.055,280.553 232.312 L 282.440 233.156 282.353 241.535 L 282.267 249.913 281.563 250.518 C 281.136 250.885,280.322 251.195,279.496 251.304 C 278.204 251.476,278.133 251.526,278.133 252.276 L 278.133 253.067 284.667 253.067 L 291.200 253.067 291.200 252.272 C 291.200 251.619,291.069 251.450,290.467 251.326 C 287.038 250.622,287.178 251.022,287.116 241.800 C 287.059 233.359,286.909 233.896,289.680 232.652 C 293.341 231.009,297.022 232.262,297.850 235.435 C 298.461 237.773,298.369 248.305,297.723 249.943 C 297.463 250.605,296.385 251.103,294.733 251.327 C 293.409 251.506,293.333 251.559,293.333 252.292 L 293.333 253.067 300.000 253.067 L 306.667 253.067 306.667 252.298 C 306.667 251.466,306.196 251.211,304.651 251.204 C 302.766 251.195,302.800 251.360,302.800 242.354 C 302.800 232.855,302.737 232.576,299.998 230.041 C 296.881 227.155,293.868 227.394,289.253 230.892 C 288.255 231.648,287.385 232.267,287.319 232.267 C 287.254 232.267,287.200 231.187,287.200 229.867 C 287.200 227.013,287.651 227.096,282.600 229.024 M263.333 228.511 C 262.307 228.911,260.537 229.572,259.400 229.980 C 256.688 230.952,256.657 231.380,259.214 232.558 L 261.095 233.425 261.014 241.669 L 260.933 249.914 260.217 250.529 C 259.785 250.901,258.965 251.219,258.150 251.331 C 256.880 251.506,256.800 251.563,256.800 252.292 L 256.800 253.067 263.867 253.067 L 270.933 253.067 270.933 252.279 C 270.933 251.595,270.819 251.473,270.067 251.358 C 269.590 251.285,268.750 251.154,268.201 251.067 C 267.652 250.981,266.872 250.625,266.468 250.278 L 265.733 249.647 265.649 243.175 C 265.553 235.874,265.718 234.947,267.332 233.716 C 268.758 232.628,269.711 232.630,271.967 233.724 C 274.229 234.821,274.073 234.893,275.379 232.168 L 276.129 230.602 275.082 229.697 C 272.553 227.511,270.725 227.830,267.667 230.992 L 265.600 233.129 265.600 230.431 C 265.600 228.947,265.510 227.745,265.400 227.758 C 265.290 227.772,264.360 228.111,263.333 228.511 M129.069 229.555 C 124.404 231.395,124.251 231.623,126.848 232.864 L 128.667 233.733 128.738 241.156 C 128.827 250.555,128.661 251.200,126.143 251.200 C 124.939 251.200,124.533 251.462,124.533 252.239 L 124.533 252.955 131.200 252.944 L 137.867 252.933 137.867 252.212 C 137.867 251.585,137.735 251.469,136.867 251.327 C 133.164 250.722,133.482 251.858,133.384 238.906 C 133.338 232.908,133.218 228.007,133.117 228.015 C 133.016 228.023,131.194 228.716,129.069 229.555 M238.800 229.174 C 229.372 232.169,226.311 242.848,232.888 249.802 C 242.676 260.150,260.003 248.039,253.546 235.362 C 251.140 230.638,243.838 227.574,238.800 229.174 M243.630 230.794 C 252.093 233.307,251.010 251.844,242.400 251.838 C 233.243 251.833,231.927 232.821,240.933 230.648 C 242.116 230.362,242.189 230.366,243.630 230.794 M185.467 231.571 C 186.200 231.918,187.312 232.648,187.938 233.193 L 189.076 234.183 189.004 241.025 L 188.933 247.867 187.342 248.661 C 183.988 250.337,180.531 249.727,178.168 247.043 C 172.228 240.294,178.010 228.036,185.467 231.571 M213.733 272.368 C 209.481 274.273,209.422 274.361,211.600 275.567 L 213.200 276.453 213.267 286.027 C 213.423 308.137,213.194 310.133,210.504 310.133 C 209.381 310.133,209.333 310.166,209.333 310.933 L 209.333 311.733 215.467 311.733 L 221.600 311.733 221.600 310.933 C 221.600 310.180,221.539 310.133,220.551 310.133 C 217.872 310.133,217.534 309.379,217.652 303.671 L 217.733 299.742 219.021 300.843 C 220.428 302.046,225.630 307.657,226.332 308.730 C 226.897 309.591,226.285 310.133,224.749 310.133 C 223.798 310.133,223.733 310.184,223.733 310.933 L 223.733 311.733 229.867 311.733 L 236.000 311.733 236.000 310.933 C 236.000 310.239,235.903 310.133,235.267 310.132 C 233.953 310.131,229.452 305.923,223.096 298.755 L 222.111 297.643 225.732 294.622 C 229.964 291.089,231.313 290.248,233.400 289.834 C 234.840 289.549,234.933 289.484,234.933 288.765 L 234.933 288.000 229.200 288.000 L 223.467 288.000 223.467 288.800 C 223.467 289.261,223.608 289.601,223.800 289.601 C 225.911 289.611,226.706 290.609,225.685 291.968 C 224.217 293.922,218.513 298.933,217.756 298.933 C 217.562 298.933,217.735 283.345,218.021 275.000 C 218.141 271.511,218.102 270.670,217.818 270.681 C 217.625 270.690,215.787 271.449,213.733 272.368 M385.276 272.363 C 381.035 274.261,380.886 274.494,383.200 275.600 L 384.800 276.365 384.785 291.716 C 384.766 310.714,384.868 310.132,381.533 310.133 C 380.600 310.133,380.533 310.187,380.533 310.933 L 380.533 311.733 387.333 311.733 L 394.133 311.733 394.133 310.933 C 394.133 310.172,394.078 310.133,393.000 310.118 C 389.041 310.066,389.267 311.392,389.469 289.400 C 389.611 273.917,389.580 270.672,389.287 270.697 C 389.093 270.713,387.288 271.463,385.276 272.363 M10.450 277.133 C 10.533 277.998,10.537 278.000,12.308 278.153 C 16.005 278.471,15.887 277.919,15.792 294.400 C 15.701 310.227,15.871 309.458,12.399 309.782 L 10.667 309.944 10.667 310.839 L 10.667 311.733 18.533 311.733 L 26.400 311.733 26.400 310.800 C 26.400 309.977,26.320 309.867,25.718 309.867 C 24.274 309.867,22.655 309.264,21.996 308.480 L 21.333 307.692 21.333 301.446 L 21.333 295.200 22.382 295.200 C 23.411 295.200,23.546 295.325,29.449 301.746 C 36.371 309.277,36.645 309.867,33.218 309.867 C 32.004 309.867,32.000 309.870,32.000 310.800 L 32.000 311.733 39.467 311.733 L 46.933 311.733 46.933 310.834 C 46.933 309.998,46.862 309.923,45.912 309.772 C 44.087 309.480,43.355 308.781,31.011 295.559 L 27.755 292.071 30.194 289.324 C 37.412 281.189,40.420 278.497,42.565 278.249 C 44.974 277.971,45.067 277.927,45.067 277.062 L 45.067 276.267 37.983 276.267 L 30.900 276.267 30.983 277.133 C 31.064 277.968,31.120 278.006,32.501 278.175 C 36.164 278.622,35.572 280.122,28.717 287.750 C 25.028 291.855,23.659 293.026,22.290 293.248 L 21.333 293.403 21.335 287.035 C 21.337 278.378,21.353 278.337,24.928 277.971 C 26.622 277.798,26.667 277.773,26.667 277.030 L 26.667 276.267 18.516 276.267 L 10.366 276.267 10.450 277.133 M268.000 277.038 C 268.000 277.922,268.370 278.133,269.915 278.133 C 273.375 278.133,273.337 277.963,273.312 293.279 C 273.285 309.632,273.341 309.390,269.478 309.789 C 268.009 309.940,268.000 309.947,268.000 310.837 L 268.000 311.733 276.400 311.733 L 284.800 311.733 284.800 310.836 L 284.800 309.938 282.942 309.805 C 279.162 309.535,278.933 309.014,278.933 300.675 L 278.933 294.400 288.821 294.400 L 298.708 294.400 298.621 301.048 C 298.511 309.388,298.293 309.810,294.067 309.852 L 292.533 309.867 292.533 310.800 L 292.533 311.733 301.067 311.733 L 309.600 311.733 309.600 310.800 L 309.600 309.867 308.333 309.865 C 304.040 309.860,304.228 310.616,304.322 293.792 C 304.414 277.308,304.146 278.437,308.067 278.000 C 309.545 277.834,309.600 277.800,309.600 277.047 L 309.600 276.267 301.333 276.267 L 293.067 276.267 293.067 277.036 C 293.067 277.892,293.533 278.123,295.275 278.130 C 298.375 278.141,298.667 278.843,298.667 286.306 L 298.667 292.000 288.758 292.000 L 278.850 292.000 279.036 285.963 C 279.258 278.722,279.512 278.142,282.458 278.130 C 284.064 278.123,284.533 277.875,284.533 277.036 L 284.533 276.267 276.267 276.267 L 268.000 276.267 268.000 277.038 M148.107 277.973 C 146.182 279.898,147.421 282.648,150.221 282.661 C 152.030 282.669,153.067 281.651,153.067 279.867 C 153.067 277.166,150.061 276.019,148.107 277.973 M243.170 277.467 C 242.262 277.960,241.756 279.212,241.957 280.471 C 242.359 282.998,246.155 283.611,247.331 281.339 C 248.744 278.606,245.916 275.974,243.170 277.467 M343.817 286.663 C 339.298 290.587,339.120 290.933,341.628 290.933 L 343.198 290.933 343.024 299.272 C 342.826 308.766,342.950 309.657,344.689 311.184 C 346.975 313.191,351.630 312.760,354.941 310.234 C 356.903 308.739,356.640 307.125,354.650 308.443 C 353.207 309.398,350.857 309.571,349.651 308.811 C 348.090 307.828,348.000 307.278,348.000 298.675 L 348.000 290.933 351.704 290.933 L 355.409 290.933 355.867 289.800 C 356.119 289.177,356.385 288.517,356.458 288.333 C 356.561 288.075,355.626 288.000,352.305 288.000 L 348.020 288.000 347.943 285.573 L 347.867 283.146 343.817 286.663 M75.733 287.731 C 72.335 288.998,71.585 289.372,71.515 289.836 C 71.468 290.146,71.573 290.400,71.748 290.400 C 71.923 290.400,72.772 290.716,73.633 291.103 L 75.200 291.806 75.200 300.274 C 75.200 310.144,75.290 309.787,72.733 310.050 C 71.261 310.202,71.200 310.238,71.200 310.971 L 71.200 311.733 77.733 311.733 L 84.267 311.733 84.267 310.933 C 84.267 310.195,84.194 310.133,83.325 310.133 C 80.130 310.133,79.976 309.670,80.063 300.329 L 80.133 292.714 81.803 291.798 C 85.634 289.696,89.926 290.779,90.682 294.037 C 90.953 295.207,91.016 306.533,90.759 308.085 C 90.552 309.337,89.869 309.828,88.034 310.046 C 86.745 310.198,86.667 310.251,86.667 310.970 L 86.667 311.733 93.067 311.733 L 99.467 311.733 99.467 310.968 C 99.467 310.248,99.384 310.191,98.109 310.022 C 97.199 309.901,96.539 309.630,96.109 309.200 L 95.467 308.558 95.467 300.697 L 95.467 292.837 97.369 291.885 C 99.725 290.707,101.622 290.597,103.475 291.533 C 105.986 292.802,106.565 295.057,106.266 302.413 C 105.985 309.346,105.830 309.707,102.996 310.042 C 101.676 310.199,101.600 310.249,101.600 310.970 L 101.600 311.733 108.133 311.733 L 114.667 311.733 114.667 310.933 C 114.667 310.239,114.570 310.133,113.933 310.132 C 110.722 310.125,110.505 309.571,110.925 302.432 C 111.392 294.499,110.900 291.900,108.454 289.378 C 105.237 286.061,101.784 286.267,97.081 290.058 L 95.096 291.658 94.592 290.640 C 92.319 286.046,87.566 285.744,82.000 289.838 L 80.133 291.211 80.000 288.700 L 79.867 286.189 75.733 287.731 M121.067 287.240 C 119.527 287.829,117.757 288.508,117.133 288.747 C 115.392 289.415,115.569 290.094,117.733 291.036 L 119.467 291.792 119.467 306.708 L 119.467 321.624 118.825 322.266 C 118.394 322.696,117.734 322.968,116.825 323.089 C 115.549 323.258,115.467 323.315,115.467 324.034 L 115.467 324.800 122.133 324.800 L 128.800 324.800 128.800 324.026 C 128.800 323.278,128.747 323.246,127.182 323.065 C 124.171 322.715,123.597 321.040,124.118 314.122 L 124.308 311.600 126.887 311.526 C 131.547 311.392,135.257 309.976,138.227 307.198 C 148.042 298.016,137.715 282.266,126.355 289.094 C 125.159 289.812,124.146 290.400,124.102 290.400 C 124.058 290.400,123.987 289.448,123.944 288.284 L 123.867 286.167 121.067 287.240 M164.336 287.697 C 159.426 289.512,159.185 289.860,162.000 291.057 L 163.733 291.793 163.733 300.277 L 163.733 308.761 163.037 309.309 C 162.655 309.610,161.755 309.934,161.037 310.029 C 159.819 310.191,159.733 310.253,159.733 310.968 L 159.733 311.733 166.267 311.733 L 172.800 311.733 172.800 310.958 C 172.800 310.229,172.720 310.172,171.450 309.998 C 170.635 309.886,169.815 309.568,169.383 309.196 L 168.667 308.580 168.582 300.851 L 168.497 293.121 169.382 292.459 C 173.422 289.433,178.204 290.344,179.373 294.362 C 179.874 296.084,179.759 307.214,179.226 308.605 C 178.909 309.432,178.071 309.834,176.200 310.057 C 175.019 310.197,174.933 310.259,174.933 310.970 L 174.933 311.733 181.600 311.733 L 188.267 311.733 188.267 310.971 C 188.267 310.240,188.204 310.201,186.755 310.052 C 184.296 309.798,184.161 309.536,184.291 305.284 C 184.637 294.015,184.418 292.184,182.423 289.661 C 179.500 285.965,175.573 286.004,170.561 289.779 L 168.667 291.205 168.533 288.700 L 168.400 286.194 164.336 287.697 M148.333 288.328 C 143.572 290.240,143.455 290.417,146.144 291.654 L 148.000 292.507 148.000 300.532 L 148.000 308.558 147.369 309.188 C 146.927 309.630,146.288 309.876,145.236 310.007 C 143.801 310.186,143.733 310.229,143.733 310.964 L 143.733 311.733 150.400 311.733 L 157.067 311.733 157.067 310.964 C 157.067 310.229,156.999 310.186,155.564 310.007 C 154.512 309.876,153.873 309.630,153.431 309.188 L 152.800 308.558 152.800 297.612 C 152.800 291.592,152.710 286.673,152.600 286.681 C 152.490 286.689,150.570 287.430,148.333 288.328 M243.000 288.301 C 238.181 290.203,238.053 290.400,240.813 291.650 L 242.689 292.501 242.611 300.674 C 242.522 310.083,242.645 309.664,239.860 310.012 C 238.471 310.186,238.400 310.232,238.400 310.964 L 238.400 311.733 245.067 311.733 L 251.733 311.733 251.733 310.964 C 251.733 310.229,251.666 310.186,250.231 310.007 C 249.178 309.876,248.540 309.630,248.098 309.188 L 247.467 308.558 247.467 297.612 C 247.467 291.592,247.377 286.673,247.267 286.682 C 247.157 286.690,245.237 287.419,243.000 288.301 M197.070 287.628 C 189.591 289.638,189.604 296.877,197.094 301.093 C 203.234 304.549,204.630 308.556,200.354 310.448 C 197.782 311.586,195.924 310.610,194.143 307.187 C 193.059 305.105,192.071 304.480,191.320 305.403 C 191.292 305.438,191.464 306.847,191.704 308.533 L 192.140 311.600 193.470 311.953 C 200.562 313.835,206.655 310.743,206.664 305.258 C 206.669 302.207,205.447 300.645,200.933 297.933 C 195.411 294.615,194.615 293.475,195.913 290.740 C 197.517 287.360,202.161 288.648,204.416 293.099 C 204.902 294.058,205.215 294.400,205.504 294.289 C 205.728 294.203,206.094 294.133,206.319 294.133 C 206.756 294.133,206.750 294.012,206.085 289.648 C 205.803 287.796,205.756 287.703,205.169 287.851 C 204.829 287.936,203.511 287.824,202.240 287.603 C 199.462 287.118,198.959 287.121,197.070 287.628 M56.933 287.825 C 45.615 291.577,45.709 309.245,57.064 312.153 C 61.150 313.200,67.020 310.472,69.049 306.584 C 69.889 304.975,68.828 304.800,66.989 306.244 C 60.770 311.131,53.067 306.805,53.067 298.425 L 53.067 296.595 58.467 296.426 C 61.437 296.333,65.027 296.187,66.445 296.101 L 69.024 295.946 68.882 294.973 C 68.112 289.692,62.118 286.107,56.933 287.825 M321.628 287.871 C 311.674 290.667,308.619 302.663,316.168 309.308 C 326.264 318.195,342.052 306.585,336.260 294.533 C 333.854 289.527,326.940 286.379,321.628 287.871 M366.259 287.953 C 357.897 291.063,355.368 302.891,361.714 309.213 C 365.159 312.645,369.298 313.385,373.513 311.322 C 376.185 310.015,379.618 306.291,378.922 305.454 C 378.452 304.887,378.226 304.958,376.848 306.104 C 370.862 311.082,363.469 307.340,362.772 298.979 C 362.556 296.388,362.050 296.619,368.400 296.421 C 371.333 296.330,374.857 296.186,376.230 296.101 L 378.726 295.946 378.554 294.867 C 377.687 289.447,371.539 285.990,366.259 287.953 M61.071 289.561 C 63.138 290.660,64.508 293.929,63.030 294.236 C 59.602 294.947,53.598 295.094,53.606 294.467 C 53.649 291.017,58.194 288.030,61.071 289.561 M370.316 289.350 C 371.819 289.916,374.187 293.369,373.526 294.030 C 373.310 294.245,369.604 294.675,366.589 294.834 L 363.138 295.016 363.324 294.375 C 364.508 290.286,367.361 288.236,370.316 289.350 M327.786 290.286 C 336.020 296.073,331.227 314.089,322.531 310.040 C 317.021 307.473,315.456 296.695,319.880 291.774 C 322.241 289.149,325.338 288.565,327.786 290.286 M132.059 291.527 C 135.906 293.300,137.882 297.432,137.081 302.029 C 135.806 309.354,129.373 312.162,125.070 307.273 L 124.000 306.058 124.000 299.151 L 124.000 292.244 125.667 291.441 C 127.763 290.431,129.737 290.457,132.059 291.527 M54.933 346.933 L 54.933 348.267 201.600 348.267 L 348.267 348.267 348.267 346.933 L 348.267 345.600 201.600 345.600 L 54.933 345.600 54.933 346.933 M200.037 372.039 C 193.723 373.856,192.574 384.278,198.318 387.644 C 200.471 388.906,203.610 388.858,206.200 387.525 C 206.310 387.469,206.400 387.612,206.400 387.844 C 206.400 388.178,206.706 388.267,207.867 388.267 L 209.333 388.267 209.333 383.733 L 209.333 379.200 205.867 379.200 L 202.400 379.200 202.400 380.667 L 202.400 382.133 204.267 382.133 C 206.337 382.133,206.479 382.292,205.720 383.758 C 203.731 387.606,198.130 385.140,198.135 380.419 C 198.141 374.537,204.419 372.405,206.203 377.680 C 206.285 377.922,209.333 376.637,209.333 376.360 C 209.333 373.558,203.761 370.968,200.037 372.039 M238.980 372.114 C 231.578 374.522,231.579 385.691,238.981 388.149 C 245.049 390.165,250.535 386.295,250.532 380.000 C 250.529 373.991,244.939 370.175,238.980 372.114 M155.537 379.667 C 153.751 383.883,152.212 387.543,152.116 387.800 C 151.962 388.216,152.141 388.266,153.771 388.264 L 155.600 388.262 156.268 386.464 L 156.937 384.667 160.175 384.592 L 163.413 384.517 164.149 386.392 L 164.884 388.267 166.737 388.267 C 168.392 388.267,168.571 388.217,168.412 387.800 C 168.313 387.543,166.783 383.883,165.011 379.667 L 161.789 372.000 160.287 372.000 L 158.785 372.000 155.537 379.667 M173.867 380.133 L 173.867 388.267 175.595 388.267 L 177.323 388.267 177.395 382.763 L 177.467 377.259 180.894 382.763 L 184.322 388.267 186.294 388.267 L 188.267 388.267 188.267 380.133 L 188.267 372.000 186.672 372.000 L 185.077 372.000 185.005 377.464 L 184.933 382.927 181.487 377.464 L 178.041 372.000 175.954 372.000 L 173.867 372.000 173.867 380.133 M216.267 380.133 L 216.267 388.267 218.000 388.267 L 219.733 388.267 219.733 385.927 C 219.733 383.708,219.775 383.537,220.555 382.592 C 221.579 381.350,221.439 381.242,223.778 385.069 L 225.733 388.266 227.667 388.267 C 228.730 388.267,229.600 388.217,229.600 388.156 C 229.600 388.096,228.333 386.048,226.784 383.605 C 225.235 381.163,224.005 379.063,224.050 378.938 C 224.096 378.814,225.393 377.312,226.933 375.600 C 230.375 371.775,230.312 371.996,227.956 372.018 L 226.000 372.037 222.933 375.495 L 219.867 378.954 219.792 375.477 L 219.718 372.000 217.992 372.000 L 216.267 372.000 216.267 380.133 M256.800 380.133 L 256.800 388.267 258.400 388.267 L 260.000 388.267 260.000 385.921 L 260.000 383.575 261.030 382.569 L 262.060 381.563 264.117 384.915 L 266.173 388.267 268.020 388.267 C 270.294 388.267,270.310 388.476,267.713 384.385 C 266.529 382.519,265.274 380.539,264.924 379.986 L 264.289 378.979 267.344 375.639 C 270.964 371.684,270.868 372.000,268.451 372.000 L 266.502 372.000 263.318 375.590 L 260.133 379.181 260.059 375.590 L 259.985 372.000 258.392 372.000 L 256.800 372.000 256.800 380.133 M134.933 380.288 L 134.933 388.310 139.667 388.220 C 143.972 388.139,144.502 388.077,145.530 387.529 C 148.289 386.057,148.493 381.460,145.868 379.910 L 145.119 379.468 146.026 378.560 C 147.747 376.840,147.120 373.866,144.781 372.657 C 144.205 372.359,142.950 372.267,139.480 372.267 L 134.933 372.267 134.933 380.288 M243.938 375.079 C 249.179 377.269,247.696 385.561,242.058 385.594 C 239.059 385.612,236.981 383.361,236.971 380.085 C 236.960 376.224,240.533 373.657,243.938 375.079 M142.532 375.316 C 145.110 376.393,143.626 378.400,140.252 378.400 L 138.133 378.400 138.133 376.667 L 138.133 374.933 139.875 374.933 C 140.833 374.933,142.029 375.105,142.532 375.316 M161.368 379.285 L 162.343 381.733 160.339 381.812 C 157.837 381.910,157.937 382.131,159.121 379.121 C 159.673 377.717,160.185 376.630,160.259 376.703 C 160.333 376.777,160.832 377.939,161.368 379.285 M143.077 381.454 C 146.184 382.752,144.541 385.333,140.607 385.333 L 138.133 385.333 138.133 383.200 L 138.133 381.067 140.142 381.067 C 141.294 381.067,142.545 381.232,143.077 381.454 " stroke="none" fill="#f4f4ec" fill-rule="evenodd"></path><path id="path1" d="M189.370 8.153 C 182.728 9.940,176.630 16.782,173.106 26.400 C 167.781 40.935,168.653 54.589,175.602 65.451 C 176.114 66.252,176.533 66.955,176.533 67.014 C 176.533 67.072,175.363 67.191,173.933 67.279 C 157.102 68.313,138.825 84.464,138.867 98.267 C 138.909 111.815,153.653 114.350,156.436 101.288 C 157.557 96.029,155.330 84.267,153.214 84.267 C 152.065 84.267,148.749 92.049,148.251 95.916 C 148.084 97.209,147.886 98.567,147.812 98.933 L 147.676 99.600 147.422 98.933 C 144.671 91.717,152.087 80.409,163.501 74.415 C 176.834 67.412,192.517 71.463,201.053 84.114 L 202.407 86.120 201.502 87.306 C 196.734 93.551,195.782 101.824,198.866 110.200 C 199.687 112.432,199.709 112.430,200.910 110.063 L 201.893 108.127 201.494 106.597 C 200.027 100.961,200.526 96.442,203.137 91.737 L 204.097 90.007 204.479 90.937 C 211.079 107.018,198.170 125.867,180.556 125.867 L 178.226 125.867 176.125 128.026 C 174.177 130.028,174.062 130.207,174.545 130.492 C 175.303 130.940,184.508 130.903,186.400 130.445 C 192.961 128.855,197.327 126.484,201.549 122.215 L 203.498 120.245 205.723 122.484 C 212.223 129.029,222.502 132.243,231.177 130.443 L 232.087 130.254 230.356 128.127 C 228.773 126.182,228.536 125.994,227.579 125.934 C 218.544 125.364,212.612 122.933,207.937 117.883 L 206.200 116.007 207.496 112.996 C 214.488 96.746,207.318 79.282,189.743 69.757 C 183.329 66.282,181.035 63.600,180.130 58.524 C 179.511 55.046,179.865 50.044,180.924 47.333 C 181.266 46.458,181.317 46.410,181.207 47.067 C 180.136 53.459,181.246 60.465,183.866 63.850 C 184.937 65.235,190.372 57.381,191.728 52.489 C 193.995 44.306,189.945 36.435,183.467 36.435 C 178.422 36.435,174.843 40.608,174.127 47.324 C 173.939 49.089,173.915 48.739,173.993 45.333 C 174.207 36.008,177.813 27.709,184.943 20.133 L 186.700 18.267 185.239 20.267 C 181.689 25.127,178.895 30.667,179.993 30.667 C 184.158 30.667,190.162 27.732,193.761 23.939 C 201.017 16.289,198.101 5.805,189.370 8.153 M206.035 8.152 C 196.241 11.293,201.022 25.690,212.933 28.928 C 216.103 29.790,225.668 29.621,226.602 28.687 C 227.352 27.937,220.836 21.210,216.667 18.430 C 215.053 17.354,213.673 16.413,213.600 16.339 C 212.007 14.727,221.421 20.741,223.759 22.829 C 231.360 29.617,236.157 40.754,235.280 49.575 L 235.079 51.600 234.900 48.667 C 234.073 35.108,222.091 30.076,219.089 42.027 C 217.537 48.209,220.260 56.483,225.437 61.311 C 228.280 63.961,230.141 53.543,228.121 46.293 C 227.672 44.683,228.627 46.817,229.362 49.067 C 232.950 60.051,227.804 68.652,211.333 79.198 C 209.427 80.418,207.810 81.465,207.741 81.523 C 207.643 81.606,208.859 84.042,209.225 84.495 C 209.267 84.548,209.939 84.227,210.718 83.783 C 216.604 80.423,224.580 79.485,231.425 81.346 C 236.860 82.824,238.218 84.632,238.816 91.188 C 239.789 101.853,245.029 108.658,252.267 108.655 C 260.690 108.652,263.101 94.576,255.899 87.458 C 253.274 84.863,249.874 83.001,246.671 82.402 C 244.984 82.087,244.991 82.104,247.607 84.853 C 252.400 89.889,253.888 93.440,253.450 98.797 L 253.254 101.200 252.787 99.067 C 249.728 85.083,239.563 77.015,224.928 76.953 L 220.390 76.933 222.928 75.312 C 224.324 74.420,228.527 71.735,232.267 69.345 C 247.001 59.929,254.905 53.443,260.392 46.267 C 262.807 43.109,262.858 43.065,261.922 44.933 C 259.925 48.923,255.660 54.530,252.018 57.952 C 249.714 60.118,249.746 60.201,252.730 59.770 C 262.191 58.402,269.138 51.288,269.169 42.933 C 269.206 33.219,257.357 32.364,251.779 41.679 C 251.291 42.494,250.131 44.903,249.202 47.032 C 245.753 54.930,244.013 57.207,239.109 60.237 C 236.294 61.976,236.388 62.055,237.481 58.848 C 244.742 37.530,229.224 8.439,210.267 7.829 C 208.122 7.760,206.984 7.847,206.035 8.152 M233.135 10.572 C 228.737 12.740,231.380 23.906,236.600 25.208 L 237.333 25.391 237.329 23.162 C 237.325 21.229,236.961 18.742,236.419 16.933 C 236.331 16.640,236.566 17.023,236.940 17.785 C 237.728 19.386,238.389 22.239,238.395 24.067 C 238.402 25.833,238.745 25.655,239.919 23.279 C 243.084 16.870,238.349 8.001,233.135 10.572 M167.261 11.467 C 163.710 13.632,163.403 20.896,166.704 24.646 C 167.295 25.317,167.936 25.867,168.127 25.867 C 168.685 25.867,169.828 20.425,169.891 17.467 L 169.920 16.133 170.183 17.200 C 170.536 18.637,170.276 23.054,169.751 24.508 C 169.207 26.019,169.346 26.115,170.709 25.173 C 177.134 20.734,173.800 7.481,167.261 11.467 M245.733 20.757 C 241.131 23.563,239.319 33.961,242.386 39.972 C 242.941 41.061,243.622 41.867,243.986 41.867 C 244.633 41.867,247.013 33.495,247.550 29.333 L 247.911 26.533 248.107 28.400 C 248.437 31.542,247.590 36.467,245.990 40.720 C 245.193 42.838,245.266 42.971,246.691 41.983 C 251.877 38.389,254.486 30.073,252.271 24.196 C 250.978 20.763,248.157 19.279,245.733 20.757 M156.898 22.675 C 153.597 23.693,152.485 29.640,154.742 34.203 C 156.568 37.896,161.233 41.951,162.892 41.288 C 163.397 41.086,161.624 33.094,160.412 30.111 C 159.438 27.714,160.272 28.640,161.712 31.553 C 162.847 33.851,163.722 36.839,164.126 39.800 C 164.345 41.401,164.496 41.387,165.525 39.667 C 170.147 31.945,164.284 20.397,156.898 22.675 M203.399 30.407 C 196.593 32.118,192.697 38.503,195.039 44.109 C 195.593 45.434,195.776 45.340,196.929 43.133 C 198.672 39.797,201.038 36.807,203.066 35.378 C 203.801 34.861,203.777 34.923,202.779 36.140 C 200.679 38.702,197.600 44.123,197.600 45.259 C 197.600 45.978,200.637 45.190,203.200 43.807 C 212.893 38.575,213.050 27.980,203.399 30.407 M144.636 39.365 C 134.866 42.830,141.025 58.705,153.482 62.161 C 156.670 63.046,164.533 62.897,164.533 61.952 C 164.533 61.795,160.446 57.906,155.067 52.945 C 152.867 50.916,150.767 48.958,150.400 48.594 C 150.033 48.231,152.373 49.903,155.600 52.311 C 162.710 57.615,166.020 60.000,166.273 60.000 C 166.796 60.000,166.198 54.982,165.406 52.715 C 162.093 43.235,152.006 36.751,144.636 39.365 M205.676 46.237 C 196.037 49.388,192.953 65.777,200.394 74.308 C 201.428 75.494,201.302 75.667,202.268 71.733 C 203.063 68.495,207.531 54.993,207.670 55.409 C 207.891 56.073,205.089 70.939,204.105 74.325 C 203.594 76.081,203.659 76.165,205.205 75.732 C 208.144 74.909,211.891 71.310,214.086 67.200 C 219.772 56.556,214.478 43.360,205.676 46.237 M267.217 59.474 C 262.157 61.294,256.051 68.956,257.540 71.617 C 257.827 72.130,262.151 69.592,266.091 66.598 L 268.924 64.445 267.785 65.805 C 265.915 68.038,262.184 71.006,259.533 72.368 C 258.165 73.071,258.492 73.334,260.733 73.330 C 266.077 73.322,271.098 70.315,273.326 65.788 C 275.816 60.730,272.695 57.504,267.217 59.474 M142.219 63.493 C 134.148 64.840,127.721 72.331,130.471 77.184 C 132.320 80.447,139.714 80.561,145.036 77.409 C 149.052 75.030,154.388 68.433,153.232 67.276 C 152.527 66.572,142.128 70.065,138.000 72.393 C 136.166 73.427,135.998 73.483,136.800 72.789 C 140.266 69.793,144.491 67.589,148.833 66.512 C 150.355 66.135,151.960 65.732,152.400 65.617 L 153.200 65.408 151.733 64.722 C 148.971 63.431,145.375 62.966,142.219 63.493 M241.733 66.513 C 237.271 67.773,232.533 70.758,232.533 72.310 C 232.533 72.604,243.705 72.468,245.467 72.153 C 245.907 72.074,245.547 72.251,244.667 72.548 C 242.289 73.347,238.636 73.864,235.354 73.866 L 232.440 73.867 233.037 74.502 C 238.406 80.217,253.566 77.461,253.667 70.753 C 253.719 67.300,247.177 64.976,241.733 66.513 M170.933 75.392 C 157.777 76.454,152.910 89.058,165.654 89.065 C 172.212 89.069,181.333 83.897,181.333 80.174 C 181.333 79.117,169.971 81.053,165.957 82.795 C 164.600 83.383,164.486 83.401,165.067 82.928 C 167.345 81.075,172.997 79.178,177.867 78.632 C 182.064 78.162,181.989 78.212,179.978 77.194 C 177.301 75.838,173.873 75.155,170.933 75.392 M258.533 76.824 C 258.093 76.958,257.434 77.300,257.068 77.584 C 256.322 78.163,256.207 78.088,258.933 78.800 C 262.433 79.713,267.139 82.339,269.200 84.529 L 270.000 85.379 268.533 84.395 C 265.333 82.247,258.273 79.467,256.017 79.467 C 254.982 79.467,257.638 84.798,259.831 87.123 C 264.914 92.512,273.315 93.019,274.662 88.019 C 276.242 82.151,265.512 74.704,258.533 76.824 M180.296 87.088 C 176.974 87.982,175.003 89.368,174.250 91.341 C 171.955 97.350,183.896 100.496,192.116 96.047 C 193.851 95.108,195.760 93.271,195.387 92.898 C 194.945 92.456,188.439 91.958,184.667 92.077 C 180.454 92.210,180.337 92.060,184.067 91.304 C 185.808 90.951,187.182 90.888,190.730 91.000 C 195.657 91.155,195.756 91.118,193.933 89.789 C 190.078 86.979,184.679 85.910,180.296 87.088 M217.867 87.117 C 215.465 87.518,211.733 89.184,211.733 89.855 C 211.733 89.964,213.083 90.124,214.733 90.210 C 218.539 90.408,222.272 91.348,225.571 92.939 C 227.972 94.097,228.869 94.847,226.838 93.999 C 222.699 92.269,211.726 91.071,211.736 92.350 C 211.737 92.524,212.087 93.274,212.512 94.016 C 217.415 102.564,233.611 103.739,233.597 95.547 C 233.589 90.216,225.444 85.852,217.867 87.117 M161.333 91.119 C 161.333 92.121,164.415 98.422,166.065 100.793 C 167.570 102.957,166.816 102.372,164.741 99.767 C 163.874 98.678,162.505 96.433,161.673 94.734 C 159.871 91.058,159.623 91.210,159.791 95.888 C 160.005 101.846,164.352 107.456,168.760 107.464 C 175.122 107.475,171.793 95.312,164.463 91.764 C 163.079 91.094,161.333 90.734,161.333 91.119 " stroke="none" fill="#b4a494" fill-rule="evenodd"></path><path id="path2" d="" stroke="none" fill="#d4f8d4" fill-rule="evenodd"></path><path id="path3" d="" stroke="none" fill="#d4f8d4" fill-rule="evenodd"></path><path id="path4" d="" stroke="none" fill="#d4f8d4" fill-rule="evenodd"></path></g></svg>