<svg id="Component_18_1" data-name="Component 18 – 1" xmlns="http://www.w3.org/2000/svg" xmlns:xlink="http://www.w3.org/1999/xlink" width="619.831" height="136.443" viewBox="0 0 619.831 136.443">
  <defs>
    <linearGradient id="linear-gradient" x1="0.5" x2="0.5" y2="1" gradientUnits="objectBoundingBox">
      <stop offset="0" stop-color="#f5f1ea"/>
      <stop offset="1" stop-color="#d9cdc1"/>
    </linearGradient>
  </defs>
  <g id="Component_27_1" data-name="Component 27 – 1">
    <g id="Group_4854" data-name="Group 4854" transform="translate(0 0)">
      <path id="Path_971760" data-name="Path 971760" d="M125.835,138.737l-4.575,24.751c-11.856,3.952-23.5,8.735-46.175,8.735C38.271,172.223,8.32,142.065,8.32,104S38.271,35.78,75.085,35.78c20.8,0,30.991,4.992,42.015,8.736l4.576,22.671C103.788,46.388,94.221,37.86,75.085,37.86,42.638,37.86,28.911,62.4,28.911,104s13.727,66.142,46.174,66.142C95.885,170.144,106.284,160.992,125.835,138.737Zm26.212-99.421h26.415c-4.784,3.12-5.2,6.24-5.2,12.48V165.984c26.207,0,41.39-6.448,58.862-12.48L223.6,168.48H152.047c4.783-3.328,5.2-6.448,5.2-12.48V52C157.246,45.556,156.83,42.436,152.047,39.316Zm149.547,80.7c2.5,4.368,3.744,6.656,6.448,8.736H284.955c1.664-2.08,1.872-3.744-.624-8.736L268.316,87.986H236.493c-8.944,19.552-13.312,28.911-17.888,40.767h-8.527c10.191-16.847,20.175-36.191,47.63-92.765ZM267.068,85.491,251.676,54.916c-5.616,12.479-10.191,22.463-13.935,30.575Zm59.073,77.789-2.5-16.432c12.688,15.184,22.88,22.672,37.023,22.672,13.1,0,26.623-9.36,26.623-24.544,0-16.431-10.192-26.415-21.423-34.11l-11.024-7.7c-14.351-10.192-28.7-20.383-28.7-36.191,0-18.511,16.016-30.575,34.943-30.575,12.688,0,21.007,1.872,27.663,4.576l4.576,16.432c-11.232-12.688-19.967-18.928-32.239-18.928C346.94,38.484,338,44.1,338,56.788,338,70.1,350.06,78.627,362.54,87.363L374.4,95.474c12.479,8.32,24.751,18.512,24.751,38.271,0,19.551-19.76,38.062-38.479,38.062C344.861,171.807,334.669,167.44,326.141,163.28Zm94.431,0-2.5-16.432c12.688,15.184,22.879,22.672,37.023,22.672,13.1,0,26.623-9.36,26.623-24.544,0-16.431-10.192-26.415-21.423-34.11l-11.024-7.7c-14.351-10.192-28.7-20.383-28.7-36.191,0-18.511,16.016-30.575,34.943-30.575,12.687,0,21.007,1.872,27.663,4.576l4.576,16.432c-11.232-12.688-19.968-18.928-32.239-18.928-14.144,0-23.087,5.616-23.087,18.3,0,13.311,12.063,21.839,24.543,30.575l11.855,8.111c12.48,8.32,24.752,18.512,24.752,38.271,0,19.551-19.76,38.062-38.479,38.062C439.292,171.807,429.1,167.44,420.572,163.28Zm90.479,5.2c10.816-11.44,36.191-39.935,51.166-56.99L514.379,52A63.951,63.951,0,0,0,501.9,39.524h28.5c-1.872,2.7-.624,5.824,4.367,12.48l37.231,47.838C584.681,84.035,608.6,49.3,616.919,39.524h11.232c-11.232,10.192-43.678,50.334-55.95,64.894-10.608,12.687-39.311,49.5-49.71,64.062Z" transform="translate(-8.32 -35.78)" fill="url(#linear-gradient)"/>
    </g>
  </g>
</svg>
