<svg xmlns="http://www.w3.org/2000/svg" width="632.601" height="89.299" viewBox="0 0 632.601 89.299">
  <path id="Path_889787" data-name="Path 889787" d="M92.957,122.629c-9.256,0-19.33,0-30.492-18.922L51.3,84.649c-3.4-5.718-5.581-8.031-10.891-8.031H31.564v37.843c0,3.947.272,5.989,3.4,8.167H17.679c3.131-2.178,3.4-4.22,3.4-8.167V46.4c0-3.948-.272-5.989-3.4-8.167H39.6c21.78,0,27.362,9.937,27.362,18.513,0,7.759-6.534,16.88-22.733,18.922,12.251,1.634,18.1,9.12,24.912,19.058L80.57,111.6C85.607,118.953,88.057,121.4,92.957,122.629ZM31.564,39.864V74.985h5.308c15.382,0,19.33-3.812,19.33-18.241,0-13.613-4.492-16.88-17.969-16.88ZM132.3,38.23l3.948,6.806c-3.267-.953-12.252-4.628-22.053-5.172V61.508l13.476-.817-.953,2.587L114.2,63.005V95.676a93.829,93.829,0,0,0,27.77-5.173l-3.947,6.806H102.49c2.177-1.5,2.45-2.994,2.45-5.717V43.947c0-2.722-.272-4.219-2.45-5.717Zm20.829,81L151.5,108.472c8.3,9.937,14.974,14.838,24.231,14.838,8.576,0,17.424-6.126,17.424-16.063,0-10.754-6.67-17.288-14.021-22.325l-7.215-5.037c-9.392-6.67-18.786-13.34-18.786-23.686,0-12.116,10.482-20.011,22.87-20.011,8.3,0,13.749,1.225,18.1,2.995L197.1,49.937c-7.351-8.3-13.069-12.387-21.1-12.387-9.257,0-15.11,3.676-15.11,11.979,0,8.712,7.9,14.293,16.063,20.011l7.759,5.309c8.168,5.445,16.2,12.115,16.2,25.047,0,12.8-12.933,24.911-25.184,24.911C165.382,124.807,158.712,121.948,153.13,119.226Zm66.159-81h17.288c-3.131,2.178-3.4,4.219-3.4,8.167v68.064c0,3.947.272,5.989,3.4,8.167H219.29c3.131-2.178,3.4-4.22,3.4-8.167V46.4C222.693,42.45,222.421,40.408,219.29,38.23Zm45.2,8.167c0-3.948-.272-5.989-3.4-8.167h29.812c28.314,0,48.6,17.288,48.6,42.2s-20.283,42.2-48.6,42.2H261.082c3.131-2.178,3.4-4.22,3.4-8.167Zm26.409-6.534H274.967V121h15.927c26.136,0,35.121-13.749,35.121-40.566S317.031,39.864,290.895,39.864Zm95.428-1.634,3.948,6.806c-3.267-.953-12.251-4.628-22.053-5.172V61.508l13.477-.817-.953,2.587-12.524-.272V95.676a93.835,93.835,0,0,0,27.77-5.173l-3.948,6.806H356.512c2.178-1.5,2.45-2.994,2.45-5.717V43.947c0-2.722-.272-4.219-2.45-5.717Zm26.819,29.675V43.4l-4.356-5.172h13.885l56.765,68.2V93.09c0-30.357-.953-46.147-1.906-54.859h6.125c-1.088,8.712-2.041,24.775-2.041,54.723V123.99l-66.294-78V67.77c0,30.356.953,46.147,1.906,54.859H411.1C412.189,113.917,413.142,97.854,413.142,67.906Zm164.172,35.257-2.995,16.2c-7.759,2.587-15.382,5.718-30.22,5.718-24.095,0-43.7-19.738-43.7-44.65S520,35.78,544.1,35.78c13.613,0,20.283,3.267,27.5,5.718l2.995,14.838C562.884,42.722,556.622,37.141,544.1,37.141c-21.236,0-30.221,16.063-30.221,43.288s8.985,43.289,30.221,43.289C557.711,123.718,564.518,117.728,577.314,103.163Zm59.9-64.932,5.581,8.44c-5.445-1.77-18.377-6.806-34.44-6.806V74.032l22.189-1.089-1.361,2.995H608.353V121a124.6,124.6,0,0,0,41.927-6.806l-5.581,8.44H594.468c3.131-2.178,3.4-4.22,3.4-8.167V46.4c0-3.948-.272-5.989-3.4-8.167Z" transform="translate(-17.679 -35.78)" fill="#f5f1ea"/>
</svg>
