<svg xmlns="http://www.w3.org/2000/svg" width="721.339" height="136.443" viewBox="0 0 721.339 136.443">
  <path id="Path_210077" data-name="Path 210077" d="M13.1,163.279l-2.5-16.431C23.3,162.031,33.487,169.519,47.63,169.519c13.1,0,26.623-9.36,26.623-24.543,0-16.431-10.191-26.415-21.423-34.111l-11.023-7.7C27.455,92.978,13.1,82.786,13.1,66.979,13.1,48.467,29.119,36.4,48.046,36.4c12.688,0,21.008,1.872,27.663,4.576l4.576,16.431C69.054,44.724,60.318,38.484,48.046,38.484c-14.143,0-23.087,5.616-23.087,18.3,0,13.312,12.064,21.839,24.543,30.575l11.856,8.112c12.479,8.319,24.751,18.511,24.751,38.27,0,19.552-19.759,38.063-38.479,38.063C31.823,171.807,21.631,167.439,13.1,163.279ZM157.661,39.524l6.031,10.4c-4.991-1.456-18.719-7.071-33.694-7.9V75.09l20.591-1.248-1.456,3.952L130,77.378V127.3a143.371,143.371,0,0,0,42.43-7.9l-6.032,10.4H112.11c3.328-2.287,3.744-4.575,3.744-8.735v-72.8c0-4.159-.416-6.447-3.744-8.735ZM309.082,168.479c-14.144,0-29.535,0-46.591-28.911l-17.055-29.119c-5.2-8.736-8.528-12.271-16.64-12.271H215.277V156c0,6.031.416,9.151,5.2,12.479H194.062c4.784-3.328,5.2-6.448,5.2-12.479V52c0-6.032-.416-9.151-5.2-12.479h33.486c33.279,0,41.807,15.183,41.807,28.287,0,11.855-9.984,25.791-34.735,28.911,18.72,2.5,27.663,13.935,38.063,29.119l17.471,25.791C297.85,162.863,301.594,166.607,309.082,168.479ZM215.277,42.02V95.682h8.112c23.5,0,29.535-5.824,29.535-27.871,0-20.8-6.864-25.791-27.455-25.791ZM298.478,52c-3.328-6.448-5.2-9.567-9.152-12.479h28.5c-2.288,2.7-2.7,4.992,1.04,12.479l49.5,99.421c29.743-64.27,40.974-87.565,49.71-111.9H429.3c-13.727,23.919-28.079,51.582-68.013,132.491ZM453.229,39.524h21.632c-3.328,2.288-3.536,4.576-3.536,8.735v72.8c0,4.16.208,6.448,3.536,8.735H453.229c3.328-2.287,3.744-4.575,3.744-8.735v-72.8C456.973,44.1,456.557,41.812,453.229,39.524Zm167.23,99.212-4.576,24.751c-11.856,3.952-23.5,8.736-46.174,8.736-36.815,0-66.766-30.159-66.766-68.222S532.894,35.78,569.709,35.78c20.8,0,30.991,4.992,42.014,8.736L616.3,67.187c-17.887-20.8-27.455-29.327-46.59-29.327-32.447,0-46.175,24.543-46.175,66.141s13.728,66.142,46.175,66.142C590.508,170.143,600.908,160.991,620.459,138.736ZM711.98,39.524l8.527,12.9c-8.319-2.7-28.079-10.4-52.622-10.4V94.226l33.9-1.664-2.08,4.576H667.885v68.845c32.863,0,54.078-7.072,64.062-10.4l-8.528,12.9H646.67c4.784-3.328,5.2-6.448,5.2-12.479V52c0-6.032-.416-9.151-5.2-12.479Z" transform="translate(-10.608 -35.78)" fill="#f5f1ea"/>
</svg>
