<svg xmlns="http://www.w3.org/2000/svg" width="823.673" height="136.443" viewBox="0 0 823.673 136.443">
  <path id="Path_439061" data-name="Path 439061" d="M125.835,138.736l-4.575,24.751c-11.856,3.952-23.5,8.736-46.175,8.736C38.271,172.223,8.32,142.064,8.32,104S38.271,35.78,75.085,35.78c20.8,0,30.991,4.992,42.015,8.736l4.576,22.671C103.788,46.387,94.221,37.86,75.085,37.86,42.638,37.86,28.911,62.4,28.911,104s13.727,66.142,46.174,66.142C95.885,170.143,106.284,160.991,125.835,138.736Zm15.4-54.91c0-26.623,22.879-47.838,47.63-47.838,24.543,0,47.423,21.215,47.423,47.838s-22.88,47.838-47.423,47.838C164.11,131.664,141.231,110.449,141.231,83.826Zm77.581,0c0-29.327-9.567-46.382-29.951-46.382C168.27,37.444,158.7,54.5,158.7,83.826s9.568,46.382,30.159,46.382C209.245,130.208,218.812,113.153,218.812,83.826Zm46.387,1.04V47.427l-6.656-7.9h21.216l86.732,104.2V123.345c0-46.383-1.456-70.51-2.911-83.821h9.359c-1.664,13.311-3.12,37.854-3.12,83.613v47.422L268.527,51.379V84.658c0,46.382,1.456,70.51,2.912,83.821h-9.36C263.743,155.168,265.2,130.624,265.2,84.866Zm189.277,83.613H428.061c4.784-3.328,5.2-6.448,5.2-12.479V42.02c-15.392,0-33.9,6.863-41.183,11.439l8.528-13.935h81.325l8.528,13.935c-7.28-4.576-25.791-11.439-41.183-11.439V156C449.276,162.031,449.692,165.151,454.476,168.479ZM588.01,120.017c2.5,4.368,3.744,6.656,6.448,8.736H571.371c1.664-2.08,1.872-3.744-.624-8.736L554.732,87.986H522.909c-8.944,19.551-13.312,28.911-17.888,40.767h-8.527c10.191-16.848,20.175-36.191,47.63-92.765ZM553.484,85.49,538.092,54.915c-5.616,12.48-10.192,22.463-13.935,30.575Zm171.8,53.246-4.576,24.751c-11.855,3.952-23.5,8.736-46.174,8.736-36.815,0-66.766-30.159-66.766-68.222S637.724,35.78,674.539,35.78c20.8,0,30.991,4.992,42.014,8.736l4.576,22.671c-17.887-20.8-27.455-29.327-46.59-29.327-32.447,0-46.174,24.543-46.174,66.141s13.727,66.142,46.174,66.142C695.338,170.143,705.738,160.991,725.289,138.736Zm70.721,29.743H769.595c4.784-3.328,5.2-6.448,5.2-12.479V42.02c-15.391,0-33.9,6.863-41.182,11.439l8.527-13.935h81.326l8.527,13.935c-7.28-4.576-25.791-11.439-41.182-11.439V156C790.811,162.031,791.227,165.151,796.01,168.479Z" transform="translate(-8.32 -35.78)" fill="#fff"/>
</svg>
