<svg id="Component_21_1" data-name="Component 21 – 1" xmlns="http://www.w3.org/2000/svg" width="745.468" height="175.823" viewBox="0 0 745.468 175.823">
  <path id="Path_926387" data-name="Path 926387" d="M63.23,39.524l6.032,10.4c-4.992-1.456-18.72-7.071-33.695-7.9V75.09l20.591-1.248L54.7,77.794l-19.135-.416V127.3a143.371,143.371,0,0,0,42.43-7.9l-6.032,10.4H17.679c3.328-2.287,3.744-4.575,3.744-8.735v-72.8c0-4.159-.416-6.447-3.744-8.735Zm40.977,45.342V47.427l-6.656-7.9h21.215l86.733,104.2V123.345c0-46.383-1.456-70.51-2.912-83.821h9.36c-1.664,13.311-3.12,37.854-3.12,83.613v47.422L107.535,51.379V84.658c0,46.382,1.455,70.51,2.911,83.821h-9.359C102.751,155.168,104.207,130.624,104.207,84.866ZM237.534,104c0-38.062,29.119-68.221,64.685-68.221,35.775,0,65.726,30.159,65.726,68.221a68.507,68.507,0,0,1-35.983,60.734,115.1,115.1,0,0,1,10.816,8.528l22.879,19.967c12.48,11.024,22.879,14.144,31.2,15.184-20.383,5.823-32.863,5.2-52.622-14.976l-23.711-23.919a66,66,0,0,1-18.3,2.7C266.653,172.223,237.534,142.064,237.534,104Zm45.55,61.982a8.193,8.193,0,0,1-2.912-6.864c0-4.783,4.992-9.359,12.688-9.359,12.063,0,24.335,5.2,35.15,12.271,13.1-10.4,19.344-30.575,19.344-58.03,0-41.6-14.144-66.141-45.135-66.141-30.783,0-44.094,24.543-44.094,66.141C258.125,135.616,265.821,157.455,283.084,165.983Zm35.359,1.456-2.5-2.7c-6.448-6.448-16.432-12.9-23.087-12.9-6.864,0-10.608,3.12-10.608,7.487,0,5.408,3.744,8.112,7.7,9.36a46.175,46.175,0,0,0,12.271,1.456A49.09,49.09,0,0,0,318.443,167.439ZM442.2,98.178c0-32.447-1.04-49.3-2.08-58.654H447.4c-1.039,9.359-2.079,26.415-2.079,58.446V106.5c0,14.352-8.32,26-26.623,26-16.224,0-27.872-7.9-27.872-26V48.259c0-4.159-.207-6.447-3.535-8.735h21.423c-3.328,2.288-3.536,4.576-3.536,8.735V106.5c0,14.352,2.912,22.464,17.055,22.464,12.272,0,19.968-8.112,19.968-22.464ZM478.19,39.524h26.415c-4.784,3.328-5.2,6.447-5.2,12.479V156c0,6.031.416,9.151,5.2,12.479H478.19c4.784-3.328,5.2-6.448,5.2-12.479V52C483.39,45.971,482.974,42.852,478.19,39.524ZM657.066,168.479c-14.143,0-29.535,0-46.59-28.911l-17.055-29.119c-5.2-8.736-8.528-12.271-16.64-12.271H563.262V156c0,6.031.416,9.151,5.2,12.479H542.047c4.783-3.328,5.2-6.448,5.2-12.479V52c0-6.032-.416-9.151-5.2-12.479h33.486c33.279,0,41.807,15.183,41.807,28.287,0,11.855-9.984,25.791-34.735,28.911,18.719,2.5,27.663,13.935,38.063,29.119l17.471,25.791C645.835,162.863,649.579,166.607,657.066,168.479ZM563.262,42.02V95.682h8.112c23.5,0,29.534-5.824,29.534-27.871,0-20.8-6.863-25.791-27.455-25.791Zm73.217-2.5h28.495c-1.872,2.7-.624,5.824,4.368,12.479l38.271,49.087c13.311-16.016,36.4-52.415,44.3-61.566h11.232c-10.4,9.151-39.727,47.63-54.286,64.061V156c0,6.031.416,9.151,5.2,12.479H687.646c4.783-3.328,5.2-6.448,5.2-12.479V106.705L648.959,52A63.915,63.915,0,0,0,636.479,39.524Z" transform="translate(-17.679 -35.78)" fill="#fff"/>
</svg>
