<svg id="Component_20_1" data-name="Component 20 – 1" xmlns="http://www.w3.org/2000/svg" width="764.183" height="136.443" viewBox="0 0 764.183 136.443">
  <path id="Path_220195" data-name="Path 220195" d="M118.14,161.407c-11.232,5.2-27.455,10.816-43.055,10.816C40.351,172.223,8.32,142.064,8.32,104S40.351,35.78,75.085,35.78c19.344,0,31.615,5.2,42.015,8.736l4.576,22.671C103.164,47.219,92.973,37.86,75.085,37.86,45.342,37.86,28.911,62.4,28.911,104s16.431,66.142,46.174,66.142c17.68,0,31.407-7.072,38.271-15.183V122.721c0-6.032-.416-9.152-5.2-12.48h26.415c-4.784,3.328-5.2,6.448-5.2,12.48v47.422A80.537,80.537,0,0,0,118.14,161.407Zm120.848-41.39c2.5,4.368,3.743,6.656,6.447,8.736H222.348c1.664-2.08,1.872-3.744-.624-8.736L205.709,87.986H173.886C164.942,107.537,160.574,116.9,156,128.753h-8.528c10.192-16.848,20.175-36.191,47.63-92.765ZM204.461,85.49,189.069,54.915c-5.615,12.48-10.191,22.463-13.935,30.575ZM268.11,39.316h26.415c-4.783,3.12-5.2,6.239-5.2,12.479V165.983c26.207,0,41.39-6.448,58.861-12.479l-8.527,14.975H268.11c4.784-3.328,5.2-6.448,5.2-12.479V52C273.31,45.555,272.894,42.436,268.11,39.316Zm100.671,0H395.2c-4.784,3.12-5.2,6.239-5.2,12.479V165.983c26.207,0,41.391-6.448,58.862-12.479l-8.528,14.975H368.781c4.784-3.328,5.2-6.448,5.2-12.479V52C373.981,45.555,373.565,42.436,368.781,39.316ZM515,39.524l6.032,10.4c-4.992-1.456-18.72-7.071-33.7-7.9V75.09l20.591-1.248-1.456,3.952-19.135-.416V127.3a143.363,143.363,0,0,0,42.43-7.9l-6.031,10.4H469.452c3.327-2.287,3.743-4.575,3.743-8.735v-72.8c0-4.159-.416-6.447-3.743-8.735ZM666.423,168.479c-14.144,0-29.535,0-46.59-28.911l-17.056-29.119c-5.2-8.736-8.528-12.271-16.639-12.271h-13.52V156c0,6.031.416,9.151,5.2,12.479H551.4c4.784-3.328,5.2-6.448,5.2-12.479V52c0-6.032-.416-9.151-5.2-12.479H584.89c33.279,0,41.806,15.183,41.806,28.287,0,11.855-9.983,25.791-34.734,28.911,18.719,2.5,27.663,13.935,38.062,29.119L647.5,151.632C655.191,162.863,658.935,166.607,666.423,168.479ZM572.618,42.02V95.682h8.112c23.5,0,29.535-5.824,29.535-27.871,0-20.8-6.864-25.791-27.455-25.791Zm73.218-2.5h28.495c-1.872,2.7-.624,5.824,4.368,12.479l38.27,49.087c13.312-16.016,36.4-52.415,44.3-61.566H772.5c-10.4,9.151-39.726,47.63-54.286,64.061V156c0,6.031.416,9.151,5.2,12.479H697c4.784-3.328,5.2-6.448,5.2-12.479V106.705L658.315,52A63.886,63.886,0,0,0,645.836,39.524Z" transform="translate(-8.32 -35.78)" fill="#f5f1ea"/>
</svg>
